<?xml version="1.0" standalone="no"?>
<!DOCTYPE svg PUBLIC "-//W3C//DTD SVG 20010904//EN"
 "http://www.w3.org/TR/2001/REC-SVG-20010904/DTD/svg10.dtd">
<svg version="1.0" xmlns="http://www.w3.org/2000/svg"
 width="1360.000000pt" height="1360.000000pt" viewBox="0 0 1360.000000 1360.000000"
 preserveAspectRatio="xMidYMid meet">
<metadata>
Created by potrace 1.14, written by Peter Selinger 2001-2017
</metadata>
<g transform="translate(0.000000,1360.000000) scale(0.100000,-0.100000)"
fill="#000000" stroke="none">
<path d="M553 9981 c-58 -36 -78 -101 -88 -281 -6 -124 -11 -155 -31 -197 -24
-53 -44 -61 -147 -59 -51 1 -107 -2 -126 -7 -82 -22 -127 -79 -152 -196 -10
-50 -7 -269 6 -346 3 -16 7 -51 9 -78 1 -26 6 -50 10 -54 4 -4 877 -7 1941 -8
l1935 0 1 30 c1 17 3 44 5 60 11 79 13 344 3 385 -25 105 -73 165 -149 186
-19 6 -78 11 -130 13 -52 1 -102 7 -111 11 -29 16 -38 62 -43 230 -9 307 -23
326 -241 320 -214 -5 -2349 -2 -2500 4 -148 6 -162 5 -192 -13z"/>
<path d="M8950 9983 c-189 -25 -301 -72 -394 -166 -58 -59 -126 -170 -126
-208 0 -9 -3 -19 -7 -23 -4 -3 -8 -12 -9 -19 -1 -7 -5 -30 -9 -52 -4 -22 -8
-75 -9 -117 l-1 -78 -110 0 -110 0 1 -212 c1 -117 2 -219 3 -226 1 -9 27 -12
101 -11 55 1 103 0 106 -4 3 -3 6 -405 6 -892 l-1 -886 22 -8 c12 -5 26 -6 31
-4 8 5 279 7 301 3 6 -1 15 -2 20 -1 6 1 54 2 108 3 l97 0 0 894 0 894 58 1
c31 0 100 0 153 -1 l96 -1 -1 223 -1 223 -36 6 c-20 3 -44 2 -54 -1 -10 -3
-34 -4 -54 0 -20 3 -56 3 -81 0 -78 -10 -83 -6 -77 55 12 117 66 158 212 159
83 1 90 3 90 21 1 11 4 25 8 32 4 6 4 14 0 16 -10 6 -8 100 1 116 4 6 4 11 -1
11 -10 0 -9 133 1 149 4 6 3 11 -2 11 -4 0 -7 18 -5 40 2 32 0 40 -15 41 -9 0
-26 3 -37 5 -24 6 -240 12 -275 7z"/>
<path d="M10012 9974 c-251 -44 -388 -154 -463 -371 -20 -59 -29 -122 -38
-266 -1 -15 -12 -17 -78 -17 -43 0 -91 -1 -108 -3 l-30 -2 0 -210 c-1 -115 1
-216 3 -222 3 -9 32 -12 102 -11 53 0 101 -2 106 -5 5 -3 9 -387 8 -895 l0
-890 131 0 c72 -1 136 -2 141 -3 5 -1 14 0 19 1 6 1 72 1 148 1 l137 -1 1 47
c0 27 0 429 0 896 l1 847 56 1 c32 0 100 0 153 -1 l97 -1 4 35 c2 19 1 43 -3
53 -4 10 -4 22 -2 26 3 5 4 74 3 155 -1 81 -2 154 -2 164 1 18 -64 28 -117 17
-16 -3 -34 -3 -40 1 -6 3 -33 4 -59 1 -87 -11 -92 -8 -87 55 5 68 27 106 79
135 35 20 54 23 134 22 l93 -1 -1 42 c-1 22 -1 46 0 51 0 6 0 75 0 155 -1 80
-1 155 -1 168 0 12 -3 22 -7 23 -4 1 -20 3 -37 5 -80 10 -277 9 -343 -2z"/>
<path d="M5699 9726 c-2 -2 -24 -6 -49 -10 -88 -11 -108 -15 -171 -31 -114
-29 -226 -91 -304 -170 -71 -71 -106 -130 -142 -235 -17 -52 -18 -104 -18
-875 0 -451 3 -833 7 -850 4 -16 10 -40 12 -52 3 -12 10 -31 16 -42 6 -12 7
-21 3 -21 -4 0 -3 -4 2 -8 6 -4 21 -29 35 -55 57 -111 183 -208 335 -258 47
-15 38 -13 145 -35 123 -24 504 -24 615 0 11 3 49 10 85 17 36 7 68 17 72 23
4 6 7 122 7 258 l1 248 -28 -6 c-15 -3 -34 -8 -42 -11 -8 -3 -28 -7 -45 -10
-16 -2 -41 -6 -55 -9 -118 -20 -380 -23 -446 -5 -55 15 -104 49 -127 88 -18
31 -19 64 -18 716 0 422 4 693 10 709 18 47 69 85 135 99 93 20 309 17 416 -5
13 -3 41 -8 62 -11 21 -3 56 -12 78 -20 22 -8 41 -13 41 -12 1 1 3 120 4 264
l2 261 -36 8 c-20 4 -40 8 -46 10 -14 3 -80 13 -135 20 -49 7 -416 15 -421 10z"/>
<path d="M7145 9350 c-27 -4 -53 -5 -57 -3 -5 2 -8 -1 -8 -7 0 -6 -4 -9 -9 -6
-5 3 -38 -3 -74 -14 -173 -53 -273 -128 -344 -256 -40 -74 -60 -136 -70 -229
-10 -86 -8 -1247 2 -1295 4 -19 8 -42 9 -50 3 -26 39 -124 55 -151 66 -108
120 -160 215 -208 31 -16 56 -27 56 -24 0 3 6 1 13 -5 14 -12 112 -38 177 -47
61 -9 293 -11 355 -3 243 31 405 131 494 306 12 24 31 78 42 120 20 73 21 108
21 707 0 347 -3 646 -6 665 -28 170 -91 277 -226 385 -42 34 -173 87 -245 100
-16 2 -41 7 -55 10 -38 9 -288 12 -345 5z m255 -502 c58 -35 58 -30 58 -649 1
-629 2 -614 -65 -650 -43 -24 -158 -21 -197 4 -50 33 -57 68 -56 280 0 106 0
358 0 560 0 407 2 420 61 456 44 27 155 26 199 -1z"/>
<path d="M11115 9352 c-26 -2 -67 -10 -155 -29 -14 -3 -31 -6 -37 -6 -7 0 -13
-3 -13 -7 0 -4 -20 -13 -45 -20 -24 -7 -50 -19 -56 -26 -6 -8 -17 -14 -24 -14
-22 0 -134 -115 -170 -175 -32 -54 -60 -127 -68 -180 -1 -11 -5 -24 -9 -30 -8
-13 -3 -1238 5 -1294 21 -145 94 -273 200 -354 16 -12 34 -27 40 -32 7 -6 41
-25 77 -42 61 -29 106 -42 220 -67 43 -10 169 -18 265 -18 108 1 178 6 335 26
51 7 183 37 200 46 12 7 15 47 15 245 0 130 -2 241 -6 246 -3 5 -26 3 -55 -5
-27 -8 -60 -17 -74 -20 -14 -3 -36 -8 -50 -11 -146 -32 -385 -38 -491 -11
-113 29 -135 75 -135 276 l1 125 430 0 430 0 0 450 c-1 394 -3 458 -18 514
-35 130 -97 227 -190 294 -34 26 -132 74 -167 83 -57 14 -99 24 -125 29 -32 7
-280 12 -330 7z m234 -490 c61 -30 69 -60 70 -266 l1 -182 -164 -1 c-114 0
-166 3 -169 11 -2 6 -3 92 -2 192 1 172 2 182 23 210 44 56 163 74 241 36z"/>
<path d="M12760 9353 c-337 -39 -532 -204 -577 -488 -4 -22 -7 -314 -7 -650 0
-450 3 -623 12 -660 7 -27 14 -60 17 -73 14 -79 118 -229 188 -273 20 -13 37
-28 37 -33 0 -5 3 -6 7 -3 3 4 13 1 22 -7 33 -28 171 -75 271 -91 132 -21 375
-21 520 0 14 2 43 6 65 9 49 7 137 24 185 37 l35 8 1 251 c0 249 0 251 -20
245 -27 -9 -95 -25 -123 -29 -11 -2 -29 -7 -40 -10 -83 -25 -310 -37 -435 -23
-112 13 -169 54 -185 134 -7 36 -10 262 -3 272 3 4 196 7 430 7 l425 0 2 429
c2 498 -2 536 -72 670 -68 131 -206 225 -380 259 -16 4 -41 9 -55 12 -27 6
-279 12 -320 7z m216 -485 c24 -8 47 -26 61 -46 21 -32 22 -42 20 -220 l-2
-187 -165 -1 -165 -1 1 181 c2 232 11 255 109 282 45 13 84 10 141 -8z"/>
<path d="M400 8563 c0 -5 -16 -7 -35 -5 l-34 4 4 -74 c2 -41 6 -107 10 -148 3
-41 8 -104 10 -140 2 -36 6 -94 9 -130 7 -76 13 -160 21 -285 3 -49 8 -115 11
-145 3 -30 7 -84 9 -120 6 -95 14 -207 20 -270 2 -30 7 -93 10 -140 16 -227
22 -317 30 -405 4 -38 8 -101 10 -140 2 -38 6 -92 9 -120 2 -27 7 -94 11 -148
3 -54 8 -119 10 -145 3 -26 7 -85 10 -132 3 -47 8 -114 10 -150 14 -180 21
-275 30 -400 6 -80 10 -136 20 -270 4 -47 8 -110 10 -140 2 -30 6 -95 10 -145
11 -133 13 -158 14 -176 1 -14 11 -16 61 -13 33 1 61 -1 62 -4 0 -4 2 -18 3
-32 2 -14 5 -43 8 -65 4 -22 9 -65 12 -95 4 -30 8 -66 10 -80 2 -14 6 -54 10
-90 3 -36 8 -76 11 -90 2 -14 7 -50 10 -80 3 -30 7 -66 8 -80 16 -131 19 -140
35 -140 18 0 158 70 206 103 147 100 286 233 387 368 73 98 175 280 220 394
50 127 51 129 53 140 2 6 14 48 28 95 29 96 60 251 77 385 24 185 33 424 16
426 -6 1 -56 1 -110 0 -69 -1 -105 3 -120 13 -13 8 -30 43 -46 95 -22 72 -27
80 -45 75 -11 -4 -22 -9 -25 -13 -3 -3 -27 -24 -53 -45 -64 -51 -91 -81 -130
-141 -17 -27 -34 -52 -37 -55 -4 -3 -10 -14 -13 -24 -10 -26 -15 -19 -36 59
-14 49 -18 96 -17 173 2 126 26 211 89 311 47 74 74 104 142 160 l50 41 2 70
c6 155 56 405 106 520 10 25 20 52 22 61 5 27 90 191 136 265 54 86 121 175
175 232 37 38 44 42 65 32 36 -17 174 -195 237 -305 51 -90 152 -322 162 -370
0 -3 2 -10 5 -17 8 -28 36 -150 40 -176 2 -15 7 -49 11 -77 10 -69 12 -99 13
-175 l1 -66 62 -49 c58 -47 147 -148 148 -169 0 -5 6 -17 14 -25 16 -19 52
-130 60 -186 15 -105 0 -236 -34 -304 -17 -35 -17 -35 -25 -10 -10 32 -60 104
-110 158 -42 46 -155 134 -162 127 -3 -2 -7 -19 -10 -37 -9 -57 -43 -138 -61
-143 -9 -2 -55 -5 -102 -5 -47 0 -97 0 -111 0 l-27 -1 3 -87 c4 -115 16 -297
20 -303 1 -3 6 -32 10 -65 3 -33 11 -82 16 -110 6 -27 12 -61 14 -75 19 -118
96 -351 164 -495 48 -101 147 -267 162 -273 5 -2 9 -8 9 -14 0 -5 6 -15 13
-22 6 -7 23 -28 37 -46 48 -64 185 -195 272 -260 121 -91 299 -183 312 -161 2
3 7 35 10 71 4 36 9 81 11 100 3 19 7 55 10 80 6 51 15 124 20 156 2 12 7 48
10 80 4 33 9 68 12 79 2 11 6 47 9 80 10 113 9 112 79 111 64 -1 61 -7 70 139
3 44 7 110 10 147 3 37 7 97 10 135 2 37 7 104 10 148 3 44 8 107 10 140 2 33
6 96 10 140 3 44 8 105 10 135 3 30 7 87 10 125 3 39 7 99 10 135 4 68 13 187
20 280 4 58 14 189 20 281 2 29 6 83 9 119 3 36 8 101 11 145 3 44 8 107 10
140 10 123 15 202 20 280 3 44 7 103 10 130 2 28 7 93 10 145 4 52 8 115 11
140 2 25 6 86 10 135 3 50 7 110 9 135 10 123 19 268 19 298 1 17 3 32 6 32 3
0 6 26 6 58 2 102 11 223 17 229 4 3 2 14 -3 23 -8 15 -22 18 -83 17 -40 0
-78 2 -84 6 -5 4 -13 4 -16 0 -8 -8 -131 -8 -144 0 -6 4 -13 4 -16 0 -8 -8
-131 -8 -144 0 -6 4 -13 4 -16 0 -8 -8 -131 -8 -144 0 -6 4 -13 4 -16 0 -8 -8
-131 -8 -144 0 -6 4 -13 4 -16 0 -8 -8 -131 -8 -144 0 -6 4 -13 4 -16 0 -8 -8
-131 -8 -144 0 -6 4 -13 4 -16 0 -8 -8 -131 -8 -144 0 -6 4 -13 4 -16 0 -8 -8
-131 -8 -144 0 -6 4 -13 4 -16 0 -8 -8 -131 -8 -144 0 -6 4 -13 4 -16 0 -8 -8
-131 -8 -144 0 -6 4 -13 4 -16 0 -8 -8 -131 -8 -144 0 -6 4 -13 4 -16 0 -8 -8
-131 -8 -144 0 -6 4 -13 4 -16 0 -8 -8 -131 -8 -144 0 -6 4 -13 4 -16 0 -8 -8
-131 -8 -144 0 -6 4 -13 4 -16 0 -8 -8 -131 -8 -144 0 -6 4 -13 4 -16 0 -8 -8
-131 -8 -144 0 -6 4 -13 4 -16 0 -8 -8 -131 -8 -144 0 -6 4 -13 4 -16 0 -8 -8
-131 -8 -144 0 -6 4 -13 4 -16 0 -9 -8 -131 -8 -146 1 -6 4 -11 3 -11 -1z"/>
<path d="M8633 6320 c-78 -17 -110 -71 -100 -168 7 -65 33 -98 86 -109 95 -19
166 17 175 90 3 23 4 53 2 67 -2 14 -4 32 -5 40 -5 49 -94 94 -158 80z"/>
<path d="M7903 5186 l2 -1120 108 -2 c102 -1 107 0 108 20 4 78 3 2216 -1
2217 -3 1 -53 3 -112 4 l-106 1 1 -1120z"/>
<path d="M5094 6146 c-2 -6 -2 -477 -1 -1046 l2 -1035 325 0 c358 1 402 6 504
59 115 59 188 163 213 301 4 22 7 339 7 705 0 664 0 665 -23 729 -24 69 -60
127 -110 177 -34 35 -141 92 -187 100 -16 3 -38 8 -49 11 -36 12 -677 11 -681
-1z m621 -190 c97 -16 171 -80 197 -170 14 -50 19 -1259 5 -1321 -29 -128
-103 -190 -242 -200 -22 -2 -44 -4 -50 -5 -5 -1 -78 -2 -161 -1 l-150 1 -1
848 c0 466 4 849 8 852 10 7 347 4 394 -4z"/>
<path d="M6876 5853 c-149 -28 -245 -97 -311 -225 -19 -38 -33 -68 -31 -68 3
0 -2 -23 -9 -52 -20 -74 -20 -1037 -1 -1120 44 -182 179 -295 386 -323 14 -2
25 -4 25 -5 0 -8 263 -13 301 -6 11 2 47 7 79 10 32 4 61 9 65 11 4 2 22 7 40
10 18 3 37 8 42 11 4 3 8 50 8 105 l0 101 -27 -6 c-16 -4 -39 -9 -53 -11 -14
-3 -36 -7 -50 -11 -14 -3 -36 -8 -50 -11 -14 -3 -91 -7 -172 -9 -127 -3 -155
0 -205 17 -85 29 -120 57 -152 122 -29 57 -29 58 -31 251 l-1 194 378 0 c208
1 387 1 399 1 17 1 20 6 17 44 -2 23 -3 49 -3 57 3 143 1 487 -4 524 -24 209
-153 350 -356 392 -59 12 -211 10 -284 -3z m254 -195 c42 -10 65 -22 101 -58
68 -65 74 -93 74 -355 l0 -220 -288 -1 -288 -1 1 221 c1 163 5 229 15 253 8
18 13 35 12 36 -5 8 50 78 66 83 9 3 17 9 17 13 0 11 70 34 130 41 62 7 82 6
160 -12z"/>
<path d="M10775 5859 c-22 -4 -53 -10 -68 -13 -53 -10 -152 -63 -189 -102 -59
-61 -78 -84 -78 -90 0 -3 -6 -20 -14 -37 -46 -102 -48 -131 -48 -668 0 -560 2
-576 59 -679 89 -158 259 -222 568 -215 166 3 196 7 281 30 l51 15 0 101 -1
101 -26 -6 c-14 -4 -34 -8 -45 -11 -165 -37 -409 -44 -493 -13 -93 34 -152 97
-168 178 -3 19 -7 114 -8 212 l-1 176 335 0 c184 1 363 1 398 1 l63 1 -4 328
c-2 180 -7 340 -11 356 -39 158 -158 283 -306 321 -70 18 -231 26 -295 14z
m195 -194 c91 -15 144 -56 181 -140 21 -47 23 -64 23 -275 l1 -225 -287 0
-286 -1 -4 26 c-8 58 0 398 11 435 40 147 172 213 361 180z"/>
<path d="M12277 5843 c-2 -1 -16 -4 -33 -7 -71 -13 -186 -69 -232 -113 -25
-24 -33 -13 -31 42 1 30 -1 58 -5 62 -4 5 -52 8 -107 8 l-99 0 0 -885 0 -886
110 0 110 0 0 712 0 712 68 48 c112 79 156 94 287 99 38 1 72 3 75 4 4 1 4 76
1 186 -1 18 -8 20 -72 20 -38 0 -71 0 -72 -2z"/>
<path d="M9052 5832 c-7 -2 -8 -11 -2 -26 4 -12 11 -38 14 -57 8 -48 12 -68
25 -114 5 -22 13 -56 16 -75 3 -19 10 -51 15 -70 5 -19 12 -48 15 -65 6 -29
10 -47 19 -90 3 -11 12 -54 21 -95 9 -41 20 -91 25 -110 5 -19 12 -47 15 -62
3 -16 7 -38 10 -50 3 -13 7 -33 9 -46 3 -13 8 -33 12 -44 3 -11 7 -30 9 -41 2
-12 6 -33 9 -47 3 -14 15 -68 26 -120 11 -52 25 -111 30 -130 8 -32 25 -105
34 -155 3 -11 10 -42 16 -70 7 -27 14 -59 15 -70 2 -11 8 -40 15 -65 7 -25 14
-56 16 -70 2 -14 7 -41 12 -60 l8 -35 157 0 c86 -1 158 3 158 7 1 4 2 11 3 16
2 6 20 86 31 140 3 12 7 32 11 45 3 12 7 33 10 46 5 25 31 140 39 176 3 11 14
63 25 115 12 52 28 124 37 159 8 36 17 74 19 85 2 12 6 32 9 46 3 14 8 36 11
50 3 14 7 36 10 50 3 14 13 61 24 105 10 44 30 134 44 200 15 66 31 138 37
160 5 22 11 50 12 63 1 12 4 22 7 22 3 0 6 8 6 18 1 22 11 73 28 142 8 30 17
71 20 90 l6 35 -110 0 c-90 1 -111 -2 -114 -15 -4 -13 -42 -195 -52 -245 -2
-11 -7 -33 -11 -50 -3 -16 -7 -37 -8 -45 -1 -8 -18 -91 -38 -185 -20 -93 -38
-183 -41 -200 -3 -16 -17 -86 -31 -155 -14 -69 -28 -136 -30 -150 -4 -21 -21
-107 -50 -255 -3 -16 -8 -43 -11 -60 -2 -16 -7 -41 -11 -55 -3 -14 -7 -32 -8
-40 -3 -21 -16 -92 -20 -110 -2 -8 -4 -22 -5 -30 -2 -16 -26 81 -35 140 -3 19
-7 46 -10 60 -3 14 -15 75 -26 135 -12 61 -23 119 -26 130 -3 18 -12 66 -28
150 -3 17 -8 41 -12 55 -3 14 -7 32 -8 40 -1 8 -5 33 -9 55 -5 22 -10 51 -12
65 -3 14 -16 75 -29 135 -29 135 -37 174 -41 200 -2 11 -10 47 -18 80 -8 33
-17 77 -20 99 -4 21 -8 42 -11 46 -3 5 -7 21 -9 37 -3 15 -7 39 -10 53 -3 14
-8 39 -12 55 -12 63 -6 60 -117 61 -57 0 -109 -2 -115 -4z"/>
<path d="M12503 5795 c5 -22 10 -44 11 -50 3 -9 14 -68 21 -105 2 -8 13 -55
25 -105 11 -49 23 -101 25 -115 2 -14 11 -56 20 -95 9 -38 18 -83 21 -100 3
-16 12 -54 20 -83 7 -30 13 -57 12 -60 -1 -4 1 -14 5 -22 3 -8 8 -28 10 -45 3
-16 15 -73 27 -125 27 -121 24 -107 50 -230 12 -58 24 -114 27 -125 3 -11 9
-38 13 -60 5 -22 11 -49 14 -60 19 -88 76 -347 76 -349 0 -1 23 -2 51 -1 28 1
52 -2 55 -7 3 -4 -3 -36 -12 -70 -9 -35 -18 -74 -20 -88 -2 -14 -5 -34 -8 -45
-23 -109 -39 -185 -42 -208 -2 -16 -6 -33 -9 -38 -4 -5 39 -9 102 -9 l109 0
33 153 c18 83 39 181 47 217 8 36 16 74 18 85 2 11 14 62 25 113 25 108 26
113 36 170 4 23 12 45 16 48 5 3 7 9 4 13 -2 5 7 57 20 117 14 60 27 120 30
134 3 14 7 36 10 50 12 54 24 106 28 126 3 12 8 38 11 59 4 20 8 41 11 45 2 3
7 22 10 41 3 19 14 70 25 114 10 44 21 96 24 115 3 19 10 49 15 67 5 17 7 34
3 37 -3 3 -1 6 4 6 5 0 9 10 10 23 0 12 3 33 7 47 10 45 49 222 52 242 2 11 6
27 9 36 3 9 7 28 10 42 3 14 9 49 15 79 6 29 11 54 11 55 0 1 -47 2 -105 1
-69 0 -108 -4 -117 -12 -6 -7 -9 -13 -5 -13 3 0 3 -10 -2 -23 -5 -13 -12 -41
-15 -63 -4 -21 -11 -55 -16 -74 -5 -19 -12 -50 -15 -67 -3 -18 -12 -63 -21
-100 -9 -38 -18 -79 -20 -93 -3 -14 -12 -54 -20 -90 -8 -36 -17 -81 -20 -100
-3 -19 -8 -44 -11 -55 -4 -11 -8 -24 -9 -30 -8 -38 -16 -75 -39 -190 -34 -165
-31 -151 -55 -280 -12 -60 -24 -123 -27 -140 -4 -16 -8 -39 -9 -50 -2 -11 -6
-36 -9 -55 -11 -64 -15 -85 -21 -123 -6 -35 -15 -42 -20 -14 -3 22 -13 72 -18
93 -2 12 -7 37 -10 55 -12 69 -16 92 -31 169 -3 14 -8 41 -11 60 -3 19 -12 67
-19 105 -8 39 -16 82 -19 98 -6 36 -25 136 -31 165 -2 13 -6 31 -9 40 -3 9 -8
33 -11 52 -3 19 -10 51 -15 70 -5 19 -11 47 -14 61 -5 30 -42 207 -86 409 -26
117 -36 169 -39 190 -1 3 -52 6 -114 6 l-114 0 10 -41z"/>
<path d="M8562 5820 c-13 -8 -10 -1749 2 -1753 6 -2 56 -3 111 -3 l100 1 0
873 c0 481 -2 877 -5 880 -6 8 -197 10 -208 2z"/>
</g>
</svg>
